<svg xmlns="http://www.w3.org/2000/svg" width="1600" height="900" viewBox="0 0 1600 900">
  <defs>
    <linearGradient id="g" x1="0" y1="0" x2="1" y2="1">
      <stop offset="0%" stop-color="#0ea5a5"/>
      <stop offset="100%" stop-color="#10b981"/>
    </linearGradient>
  </defs>
  <rect width="1600" height="900" fill="url(#g)"/>
  <g opacity="0.15">
    <circle cx="300" cy="200" r="180" fill="white"/>
    <circle cx="1400" cy="180" r="220" fill="white"/>
    <circle cx="1200" cy="700" r="260" fill="white"/>
    <circle cx="250" cy="700" r="220" fill="white"/>
  </g>
  <g transform="translate(800,450) scale(4) translate(-64,-64)" fill="#ffffff">
    <path d="M64 24c-11 0-20 9-20 20 0 22 20 28 20 28s20-6 20-28c0-11-9-20-20-20zm0 28a8 8 0 1 1 0-16 8 8 0 0 1 0 16z"/>
  </g>
</svg>
